<?xml version="1.0" encoding="UTF-8"?>
<svg id="Layer_1" data-name="Layer 1" xmlns="http://www.w3.org/2000/svg" xmlns:xlink="http://www.w3.org/1999/xlink" viewBox="0 0 1480 1480">
  <defs>
    <linearGradient id="linear-gradient" x1="897.85" y1="1725.67" x2="1075.41" y2="1725.67" gradientTransform="translate(0 1924.91) scale(1 -1)" gradientUnits="userSpaceOnUse">
      <stop offset="0" stop-color="#c1272d"/>
      <stop offset="1" stop-color="#f15a24"/>
    </linearGradient>
    <linearGradient id="linear-gradient-2" x1="662.1" y1="1640.69" x2="312.14" y2="878.72" gradientTransform="translate(0 1924.91) scale(1 -1)" gradientUnits="userSpaceOnUse">
      <stop offset="0" stop-color="#c1272d"/>
      <stop offset="1" stop-color="#f15a24"/>
    </linearGradient>
    <linearGradient id="linear-gradient-3" x1="363.63" y1="1046.66" x2="1566.23" y2="1103.92" gradientTransform="translate(0 1924.91) scale(1 -1)" gradientUnits="userSpaceOnUse">
      <stop offset="0" stop-color="#c1272d"/>
      <stop offset="1" stop-color="#f14224"/>
    </linearGradient>
    <linearGradient id="linear-gradient-4" x1="309.4" y1="456.23" x2="1109.54" y2="1094.12" gradientTransform="translate(0 1924.91) scale(1 -1)" gradientUnits="userSpaceOnUse">
      <stop offset="0" stop-color="#c1272d"/>
      <stop offset="1" stop-color="#f15a24"/>
    </linearGradient>
    <linearGradient id="linear-gradient-5" x1="775.07" y1="269.02" x2="1131.54" y2="269.02" gradientUnits="userSpaceOnUse">
      <stop offset="0" stop-color="#c1272d"/>
      <stop offset="1" stop-color="#f15a24"/>
    </linearGradient>
    <linearGradient id="linear-gradient-6" x1="834.62" y1="123.03" x2="1191.09" y2="123.03" xlink:href="#linear-gradient-5"/>
  </defs>
  <circle cx="986.63" cy="199.24" r="88.78" style="fill: url(#linear-gradient);"/>
  <path d="M408.44,780.24c.56-.53,1.15-1.05,1.73-1.58,3.4-3.06,5.42-4.7,5.42-4.7l398.27-323.79c39.13-31.81,45.06-89.32,13.25-128.44-31.81-39.13-89.32-45.06-128.44-13.25l-393.96,320.29c-47.23,38.4-78.21,77.88-92.91,118.47-35.46,97.21-24.4,181.23,33.21,252.08l15.18,18.67c28.02,34.46,65.7,60.28,113.05,77.45,11.04,2.66,21.89,4.73,32.59,6.33-166.91-148.21-31.2-290.46,2.61-321.53h0Z" style="fill: url(#linear-gradient-2);"/>
  <path d="M1002.07,621.73c-38.25-6.26-78.64-3.73-121.2,7.71-31.82,5.2-78.05,32.45-138.68,81.73l-235.98,191.87c-7.98,6.48-16.81,11.28-26.48,14.37-35.61,5.1-62.11-3.04-79.49-24.42l-8.17-10.06c-19.57-39.85-14.1-74.08,16.37-102.69-33.81,31.06-169.52,173.32-2.63,321.53,81.83,12.25,153.39-6.47,214.64-56.26l264.72-215.21c14.99-12.19,29.37-19.62,43.09-22.31,39.06-7.36,69.75,2.67,92.06,30.11l9.55,13.7c14.61,33.54,14.26,63.21-.89,89.06,155.39-168.13-23.48-316.32-26.91-319.13h0Z" style="fill: url(#linear-gradient-3);"/>
  <path d="M1170.28,723.32c-23.35-28.72-53.09-53.56-89.23-74.55-25.22-13.59-51.56-22.56-78.99-27.05,3.42,2.81,182.3,151,26.89,319.13-6.43,10.96-15.48,21.25-27.26,30.83l-399.94,325.15c-39.22,31.89-45.07,89.57-13.05,128.68,31.87,38.93,89.21,44.74,128.25,13.01l367.87-299.08c43.08-35.03,72.19-62.14,87.33-81.34,19.44-26.94,33.81-54.25,43.1-81.95,26.06-99.6,11.08-183.89-44.97-252.83Z" style="fill: url(#linear-gradient-4);"/>
  <g>
    <path d="M791.05,240.58c4.8,0,9.55-2.14,12.69-6.24l6.96-9.04c10.42,61.79,53.7,114.66,115.14,135.98,18.91,6.56,38.32,9.71,57.47,9.71,57.34,0,112.53-28.29,145.57-78.1,4.88-7.36,2.86-17.3-4.5-22.18-7.39-4.91-17.28-2.86-22.19,4.5-35.98,54.3-104.19,77.28-165.84,55.84-51.15-17.76-86.83-62.29-94.45-114l13.7,10.54c7.02,5.36,17.06,4.08,22.43-2.93,5.39-7.01,4.1-17.04-2.91-22.43,0,0-37.84-29.14-37.94-29.2-7.95-6.13-19.26-9.57-26.46-.18l-32.32,41.97c-5.39,7.01-4.1,17.04,2.91,22.43,2.9,2.22,6.34,3.31,9.74,3.31h0Z" style="fill: url(#linear-gradient-5);"/>
    <path d="M841.77,121.3c7.34,4.88,17.28,2.86,22.19-4.5,35.98-54.29,104.26-77.26,165.84-55.84,51.15,17.76,86.83,62.29,94.45,114l-13.7-10.54c-7.02-5.38-17.06-4.1-22.43,2.93-5.39,7.01-4.1,17.04,2.91,22.43,0,0,37.84,29.12,37.94,29.2,8.1,6.22,19.15,9.71,26.46.18l32.32-41.97c5.39-7.01,4.1-17.04-2.91-22.43s-17.06-4.08-22.43,2.93l-6.96,9.04c-10.42-61.79-53.7-114.66-115.14-135.98-75.52-26.21-158.98,1.9-203.04,68.37-4.88,7.38-2.86,17.3,4.5,22.19Z" style="fill: url(#linear-gradient-6);"/>
  </g>
</svg>